<?xml version="1.0" standalone="no"?>
<!DOCTYPE svg PUBLIC "-//W3C//DTD SVG 20010904//EN"
 "http://www.w3.org/TR/2001/REC-SVG-20010904/DTD/svg10.dtd">
<svg version="1.0" xmlns="http://www.w3.org/2000/svg"
 width="432.000000pt" height="360.000000pt" viewBox="0 0 432.000000 360.000000"
 preserveAspectRatio="xMidYMid meet">

<g transform="translate(0.000000,360.000000) scale(0.100000,-0.100000)"
fill="#000000" stroke="none">
<path d="M1529 2424 c-42 -7 -88 -18 -102 -23 l-27 -11 0 -465 c0 -439 1 -466
18 -461 121 34 334 41 444 13 71 -17 171 -61 226 -97 l32 -22 0 466 0 466 -42
31 c-134 99 -351 139 -549 103z"/>
<path d="M2480 2421 c-97 -21 -176 -55 -237 -100 l-43 -31 0 -466 0 -466 33
22 c55 37 154 80 225 97 112 27 324 21 445 -13 16 -5 17 20 15 463 l-3 468
-70 18 c-107 27 -262 31 -365 8z"/>
<path d="M1270 1799 c0 -481 1 -510 18 -505 260 77 383 91 526 61 96 -20 177
-61 269 -134 l77 -61 78 61 c212 170 422 189 795 73 16 -5 17 22 15 503 l-3
508 -22 3 -23 3 0 -475 c0 -330 -3 -476 -11 -476 -6 0 -56 12 -112 27 -120 31
-302 38 -397 14 -81 -20 -187 -72 -254 -125 -32 -25 -62 -46 -66 -46 -4 0 -34
21 -66 46 -67 53 -173 105 -254 125 -93 24 -287 16 -403 -15 -53 -14 -102 -26
-107 -26 -6 0 -10 169 -10 475 l0 475 -25 0 -25 0 0 -511z"/>
</g>
</svg>
